<svg xmlns="http://www.w3.org/2000/svg" width="1600" height="760" viewBox="0 0 1600 760"><defs><radialGradient id="glow"><stop stop-color="#20453d"/><stop offset="1" stop-color="#0b0c16"/></radialGradient></defs><rect width="1600" height="760" fill="#0b0c16"/><circle cx="1180" cy="350" r="390" fill="url(#glow)"/><text x="110" y="139" fill="#82fb9c" font-size="19" letter-spacing="6" font-family="DejaVu Sans, sans-serif">OMARCHY / A LOCAL COMPANION</text><text x="103" y="308" fill="#ddf7ff" font-size="148" font-weight="bold" font-family="DejaVu Sans, sans-serif">Wisp</text><text x="110" y="388" fill="#b5cdd0" font-size="32" font-family="DejaVu Sans, sans-serif">Let your machine grow a little soul.</text><text x="110" y="479" fill="#8196a0" font-size="23" font-family="DejaVu Sans, sans-serif">Evolve. Roam. Remember. Dream.</text><text x="110" y="606" fill="#82fb9c" font-size="19" letter-spacing="2" font-family="DejaVu Sans, sans-serif">NATIVE QML   /   LOCAL AI   /   YOUR THEME</text><g transform="translate(940,135) scale(3.8)"><rect x="32" y="14" width="3.8" height="3.8" fill="#82fb9c" opacity="0.88"/><rect x="36" y="14" width="3.8" height="3.8" fill="#82fb9c" opacity="0.88"/><rect x="88" y="14" width="3.8" height="3.8" fill="#82fb9c" opacity="0.88"/><rect x="92" y="14" width="3.8" height="3.8" fill="#82fb9c" opacity="0.88"/><rect x="32" y="18" width="3.8" height="3.8" fill="#82fb9c" opacity="0.88"/><rect x="36" y="18" width="3.8" height="3.8" fill="#82fb9c" opacity="0.88"/><rect x="40" y="18" width="3.8" height="3.8" fill="#82fb9c" opacity="0.88"/><rect x="84" y="18" width="3.8" height="3.8" fill="#82fb9c" opacity="0.88"/><rect x="88" y="18" width="3.8" height="3.8" fill="#82fb9c" opacity="0.88"/><rect x="92" y="18" width="3.8" height="3.8" fill="#82fb9c" opacity="0.88"/><rect x="36" y="22" width="3.8" height="3.8" fill="#82fb9c" opacity="0.88"/><rect x="40" y="22" width="3.8" height="3.8" fill="#82fb9c" opacity="0.88"/><rect x="44" y="22" width="3.8" height="3.8" fill="#82fb9c" opacity="0.88"/><rect x="56" y="22" width="3.8" height="3.8" fill="#82fb9c" opacity="0.88"/><rect x="60" y="22" width="3.8" height="3.8" fill="#82fb9c" opacity="0.88"/><rect x="64" y="22" width="3.8" height="3.8" fill="#82fb9c" opacity="0.88"/><rect x="68" y="22" width="3.8" height="3.8" fill="#82fb9c" opacity="0.88"/><rect x="80" y="22" width="3.8" height="3.8" fill="#82fb9c" opacity="0.88"/><rect x="84" y="22" width="3.8" height="3.8" fill="#82fb9c" opacity="0.88"/><rect x="88" y="22" width="3.8" height="3.8" fill="#82fb9c" opacity="0.88"/><rect x="40" y="26" width="3.8" height="3.8" fill="#82fb9c" opacity="0.88"/><rect x="44" y="26" width="3.8" height="3.8" fill="#82fb9c" opacity="0.88"/><rect x="48" y="26" width="3.8" height="3.8" fill="#82fb9c" opacity="0.88"/><rect x="52" y="26" width="3.8" height="3.8" fill="#82fb9c" opacity="0.88"/><rect x="56" y="26" width="3.8" height="3.8" fill="#82fb9c" opacity="0.88"/><rect x="60" y="26" width="3.8" height="3.8" fill="#82fb9c" opacity="0.88"/><rect x="64" y="26" width="3.8" height="3.8" fill="#82fb9c" opacity="0.88"/><rect x="68" y="26" width="3.8" height="3.8" fill="#82fb9c" opacity="0.88"/><rect x="72" y="26" width="3.8" height="3.8" fill="#82fb9c" opacity="0.88"/><rect x="76" y="26" width="3.8" height="3.8" fill="#82fb9c" opacity="0.88"/><rect x="80" y="26" width="3.8" height="3.8" fill="#82fb9c" opacity="0.88"/><rect x="84" y="26" width="3.8" height="3.8" fill="#82fb9c" opacity="0.88"/><rect x="36" y="30" width="3.8" height="3.8" fill="#82fb9c" opacity="0.88"/><rect x="40" y="30" width="3.8" height="3.8" fill="#82fb9c" opacity="0.88"/><rect x="44" y="30" width="3.8" height="3.8" fill="#82fb9c" opacity="0.88"/><rect x="48" y="30" width="3.8" height="3.8" fill="#82fb9c" opacity="0.88"/><rect x="52" y="30" width="3.8" height="3.8" fill="#82fb9c" opacity="0.88"/><rect x="56" y="30" width="3.8" height="3.8" fill="#82fb9c" opacity="0.88"/><rect x="60" y="30" width="3.8" height="3.8" fill="#82fb9c" opacity="0.88"/><rect x="64" y="30" width="3.8" height="3.8" fill="#82fb9c" opacity="0.88"/><rect x="68" y="30" width="3.8" height="3.8" fill="#82fb9c" opacity="0.88"/><rect x="72" y="30" width="3.8" height="3.8" fill="#82fb9c" opacity="0.88"/><rect x="76" y="30" width="3.8" height="3.8" fill="#82fb9c" opacity="0.88"/><rect x="80" y="30" width="3.8" height="3.8" fill="#82fb9c" opacity="0.88"/><rect x="84" y="30" width="3.8" height="3.8" fill="#82fb9c" opacity="0.88"/><rect x="88" y="30" width="3.8" height="3.8" fill="#82fb9c" opacity="0.88"/><rect x="32" y="34" width="3.8" height="3.8" fill="#82fb9c" opacity="0.88"/><rect x="36" y="34" width="3.8" height="3.8" fill="#82fb9c" opacity="0.88"/><rect x="40" y="34" width="3.8" height="3.8" fill="#82fb9c" opacity="0.88"/><rect x="44" y="34" width="3.8" height="3.8" fill="#82fb9c" opacity="0.88"/><rect x="48" y="34" width="3.8" height="3.8" fill="#82fb9c" opacity="0.88"/><rect x="52" y="34" width="3.8" height="3.8" fill="#82fb9c" opacity="0.88"/><rect x="56" y="34" width="3.8" height="3.8" fill="#82fb9c" opacity="0.88"/><rect x="60" y="34" width="3.8" height="3.8" fill="#82fb9c" opacity="0.88"/><rect x="64" y="34" width="3.8" height="3.8" fill="#82fb9c" opacity="0.88"/><rect x="68" y="34" width="3.8" height="3.8" fill="#82fb9c" opacity="0.88"/><rect x="72" y="34" width="3.8" height="3.8" fill="#82fb9c" opacity="0.88"/><rect x="76" y="34" width="3.8" height="3.8" fill="#82fb9c" opacity="0.88"/><rect x="80" y="34" width="3.8" height="3.8" fill="#82fb9c" opacity="0.88"/><rect x="84" y="34" width="3.8" height="3.8" fill="#82fb9c" opacity="0.88"/><rect x="88" y="34" width="3.8" height="3.8" fill="#82fb9c" opacity="0.88"/><rect x="92" y="34" width="3.8" height="3.8" fill="#82fb9c" opacity="0.88"/><rect x="32" y="38" width="3.8" height="3.8" fill="#82fb9c" opacity="0.38"/><rect x="36" y="38" width="3.8" height="3.8" fill="#82fb9c" opacity="0.88"/><rect x="40" y="38" width="3.8" height="3.8" fill="#82fb9c" opacity="0.88"/><rect x="44" y="38" width="3.8" height="3.8" fill="#82fb9c" opacity="0.88"/><rect x="48" y="38" width="3.8" height="3.8" fill="#82fb9c" opacity="0.88"/><rect x="52" y="38" width="3.8" height="3.8" fill="#82fb9c" opacity="0.88"/><rect x="56" y="38" width="3.8" height="3.8" fill="#82fb9c" opacity="0.88"/><rect x="60" y="38" width="3.8" height="3.8" fill="#82fb9c" opacity="0.88"/><rect x="64" y="38" width="3.8" height="3.8" fill="#82fb9c" opacity="0.88"/><rect x="68" y="38" width="3.8" height="3.8" fill="#82fb9c" opacity="0.88"/><rect x="72" y="38" width="3.8" height="3.8" fill="#82fb9c" opacity="0.88"/><rect x="76" y="38" width="3.8" height="3.8" fill="#82fb9c" opacity="0.88"/><rect x="80" y="38" width="3.8" height="3.8" fill="#82fb9c" opacity="0.88"/><rect x="84" y="38" width="3.8" height="3.8" fill="#82fb9c" opacity="0.88"/><rect x="88" y="38" width="3.8" height="3.8" fill="#82fb9c" opacity="0.88"/><rect x="92" y="38" width="3.8" height="3.8" fill="#82fb9c" opacity="0.38"/><rect x="32" y="42" width="3.8" height="3.8" fill="#82fb9c" opacity="0.38"/><rect x="36" y="42" width="3.8" height="3.8" fill="#82fb9c" opacity="0.88"/><rect x="40" y="42" width="3.8" height="3.8" fill="#82fb9c" opacity="0.88"/><rect x="44" y="42" width="3.8" height="3.8" fill="#82fb9c" opacity="0.88"/><rect x="48" y="42" width="3.8" height="3.8" fill="#82fb9c" opacity="0.88"/><rect x="52" y="42" width="3.8" height="3.8" fill="#82fb9c" opacity="0.88"/><rect x="56" y="42" width="3.8" height="3.8" fill="#82fb9c" opacity="0.88"/><rect x="60" y="42" width="3.8" height="3.8" fill="#82fb9c" opacity="0.88"/><rect x="64" y="42" width="3.8" height="3.8" fill="#82fb9c" opacity="0.88"/><rect x="68" y="42" width="3.8" height="3.8" fill="#82fb9c" opacity="0.88"/><rect x="72" y="42" width="3.8" height="3.8" fill="#82fb9c" opacity="0.88"/><rect x="76" y="42" width="3.8" height="3.8" fill="#82fb9c" opacity="0.88"/><rect x="80" y="42" width="3.8" height="3.8" fill="#82fb9c" opacity="0.88"/><rect x="84" y="42" width="3.8" height="3.8" fill="#82fb9c" opacity="0.88"/><rect x="88" y="42" width="3.8" height="3.8" fill="#82fb9c" opacity="0.88"/><rect x="92" y="42" width="3.8" height="3.8" fill="#82fb9c" opacity="0.38"/><rect x="36" y="46" width="3.8" height="3.8" fill="#82fb9c" opacity="0.38"/><rect x="40" y="46" width="3.8" height="3.8" fill="#82fb9c" opacity="0.88"/><rect x="44" y="46" width="3.8" height="3.8" fill="#82fb9c" opacity="0.88"/><rect x="48" y="46" width="3.8" height="3.8" fill="#82fb9c" opacity="0.88"/><rect x="52" y="46" width="3.8" height="3.8" fill="#82fb9c" opacity="0.88"/><rect x="56" y="46" width="3.8" height="3.8" fill="#82fb9c" opacity="0.88"/><rect x="60" y="46" width="3.8" height="3.8" fill="#82fb9c" opacity="0.88"/><rect x="64" y="46" width="3.8" height="3.8" fill="#82fb9c" opacity="0.88"/><rect x="68" y="46" width="3.8" height="3.8" fill="#82fb9c" opacity="0.88"/><rect x="72" y="46" width="3.8" height="3.8" fill="#82fb9c" opacity="0.88"/><rect x="76" y="46" width="3.8" height="3.8" fill="#82fb9c" opacity="0.88"/><rect x="80" y="46" width="3.8" height="3.8" fill="#82fb9c" opacity="0.88"/><rect x="84" y="46" width="3.8" height="3.8" fill="#82fb9c" opacity="0.88"/><rect x="88" y="46" width="3.8" height="3.8" fill="#82fb9c" opacity="0.38"/><rect x="40" y="50" width="3.8" height="3.8" fill="#82fb9c" opacity="0.38"/><rect x="44" y="50" width="3.8" height="3.8" fill="#82fb9c" opacity="0.88"/><rect x="48" y="50" width="3.8" height="3.8" fill="#82fb9c" opacity="0.88"/><rect x="52" y="50" width="3.8" height="3.8" fill="#82fb9c" opacity="0.88"/><rect x="56" y="50" width="3.8" height="3.8" fill="#82fb9c" opacity="0.88"/><rect x="60" y="50" width="3.8" height="3.8" fill="#82fb9c" opacity="0.88"/><rect x="64" y="50" width="3.8" height="3.8" fill="#82fb9c" opacity="0.88"/><rect x="68" y="50" width="3.8" height="3.8" fill="#82fb9c" opacity="0.88"/><rect x="72" y="50" width="3.8" height="3.8" fill="#82fb9c" opacity="0.88"/><rect x="76" y="50" width="3.8" height="3.8" fill="#82fb9c" opacity="0.88"/><rect x="80" y="50" width="3.8" height="3.8" fill="#82fb9c" opacity="0.88"/><rect x="84" y="50" width="3.8" height="3.8" fill="#82fb9c" opacity="0.38"/><rect x="44" y="54" width="3.8" height="3.8" fill="#82fb9c" opacity="0.88"/><rect x="48" y="54" width="3.8" height="3.8" fill="#82fb9c" opacity="0.88"/><rect x="52" y="54" width="3.8" height="3.8" fill="#82fb9c" opacity="0.88"/><rect x="56" y="54" width="3.8" height="3.8" fill="#82fb9c" opacity="0.88"/><rect x="60" y="54" width="3.8" height="3.8" fill="#82fb9c" opacity="0.88"/><rect x="64" y="54" width="3.8" height="3.8" fill="#82fb9c" opacity="0.88"/><rect x="68" y="54" width="3.8" height="3.8" fill="#82fb9c" opacity="0.88"/><rect x="72" y="54" width="3.8" height="3.8" fill="#82fb9c" opacity="0.88"/><rect x="76" y="54" width="3.8" height="3.8" fill="#82fb9c" opacity="0.88"/><rect x="80" y="54" width="3.8" height="3.8" fill="#82fb9c" opacity="0.88"/><rect x="48" y="58" width="3.8" height="3.8" fill="#82fb9c" opacity="0.88"/><rect x="52" y="58" width="3.8" height="3.8" fill="#82fb9c" opacity="0.88"/><rect x="56" y="58" width="3.8" height="3.8" fill="#82fb9c" opacity="0.88"/><rect x="60" y="58" width="3.8" height="3.8" fill="#82fb9c" opacity="0.88"/><rect x="64" y="58" width="3.8" height="3.8" fill="#82fb9c" opacity="0.88"/><rect x="68" y="58" width="3.8" height="3.8" fill="#82fb9c" opacity="0.88"/><rect x="72" y="58" width="3.8" height="3.8" fill="#82fb9c" opacity="0.88"/><rect x="76" y="58" width="3.8" height="3.8" fill="#82fb9c" opacity="0.88"/><rect x="44" y="62" width="3.8" height="3.8" fill="#82fb9c" opacity="0.88"/><rect x="48" y="62" width="3.8" height="3.8" fill="#82fb9c" opacity="0.88"/><rect x="52" y="62" width="3.8" height="3.8" fill="#82fb9c" opacity="0.88"/><rect x="56" y="62" width="3.8" height="3.8" fill="#82fb9c" opacity="0.88"/><rect x="60" y="62" width="3.8" height="3.8" fill="#82fb9c" opacity="0.88"/><rect x="64" y="62" width="3.8" height="3.8" fill="#82fb9c" opacity="0.88"/><rect x="68" y="62" width="3.8" height="3.8" fill="#82fb9c" opacity="0.88"/><rect x="72" y="62" width="3.8" height="3.8" fill="#82fb9c" opacity="0.88"/><rect x="76" y="62" width="3.8" height="3.8" fill="#82fb9c" opacity="0.88"/><rect x="80" y="62" width="3.8" height="3.8" fill="#82fb9c" opacity="0.88"/><rect x="40" y="66" width="3.8" height="3.8" fill="#82fb9c" opacity="0.38"/><rect x="44" y="66" width="3.8" height="3.8" fill="#82fb9c" opacity="0.88"/><rect x="48" y="66" width="3.8" height="3.8" fill="#82fb9c" opacity="0.88"/><rect x="60" y="66" width="3.8" height="3.8" fill="#82fb9c" opacity="0.88"/><rect x="64" y="66" width="3.8" height="3.8" fill="#82fb9c" opacity="0.88"/><rect x="76" y="66" width="3.8" height="3.8" fill="#82fb9c" opacity="0.88"/><rect x="80" y="66" width="3.8" height="3.8" fill="#82fb9c" opacity="0.88"/><rect x="84" y="66" width="3.8" height="3.8" fill="#82fb9c" opacity="0.38"/><rect x="36" y="70" width="3.8" height="3.8" fill="#82fb9c" opacity="0.38"/><rect x="40" y="70" width="3.8" height="3.8" fill="#82fb9c" opacity="0.38"/><rect x="60" y="70" width="3.8" height="3.8" fill="#82fb9c" opacity="0.88"/><rect x="64" y="70" width="3.8" height="3.8" fill="#82fb9c" opacity="0.88"/><rect x="84" y="70" width="3.8" height="3.8" fill="#82fb9c" opacity="0.38"/><rect x="88" y="70" width="3.8" height="3.8" fill="#82fb9c" opacity="0.38"/><rect x="61" y="22" width="3" height="2" fill="#ddf7ff" opacity=".55"/><rect x="57" y="26" width="3" height="2" fill="#ddf7ff" opacity=".55"/><rect x="49" y="22" width="3" height="2" fill="#ddf7ff" opacity=".55"/><rect x="49" y="42" width="7" height="6" fill="#0b0c16"/><rect x="72" y="42" width="7" height="6" fill="#0b0c16"/><rect x="61" y="54" width="6" height="2" fill="#0b0c16"/><ellipse cx="64" cy="94" rx="52" ry="9" fill="none" stroke="#82fb9c" opacity=".45"/><rect x="113.00" y="94.00" width="3" height="3" fill="#82fb9c" opacity=".7"/><rect x="106.30" y="98.00" width="3" height="3" fill="#82fb9c" opacity=".7"/><rect x="88.00" y="100.93" width="3" height="3" fill="#82fb9c" opacity=".7"/><rect x="63.00" y="102.00" width="3" height="3" fill="#82fb9c" opacity=".7"/><rect x="38.00" y="100.93" width="3" height="3" fill="#82fb9c" opacity=".7"/><rect x="19.70" y="98.00" width="3" height="3" fill="#82fb9c" opacity=".7"/><rect x="13.00" y="94.00" width="3" height="3" fill="#82fb9c" opacity=".7"/><rect x="19.70" y="90.00" width="3" height="3" fill="#82fb9c" opacity=".7"/><rect x="38.00" y="87.07" width="3" height="3" fill="#82fb9c" opacity=".7"/><rect x="63.00" y="86.00" width="3" height="3" fill="#82fb9c" opacity=".7"/><rect x="88.00" y="87.07" width="3" height="3" fill="#82fb9c" opacity=".7"/><rect x="106.30" y="90.00" width="3" height="3" fill="#82fb9c" opacity=".7"/></g><path d="M110 660 H1490" stroke="#27363b"/><text x="110" y="707" fill="#8196a0" font-size="16" font-family="DejaVu Sans, sans-serif">Created by 0xQuan · MIT licensed · No cloud required</text></svg>